<svg xmlns="http://www.w3.org/2000/svg" hidden>
  <symbol id="icon-logo" viewBox="0 0 16 16">
    <path d="M.2 8L0 7.8v-.2C.8 6.9 1.9 5.9 2.7 5l.4.3c-.5.8-1.1 1.6-1.8 2.3 1 1.2 1 1.3 1.7 2.4l-.4.3c-.4-.4-.5-.6-1-1C1 8.6 1.1 8.7.2 8zM13 10c.6-1.1.7-1.1 1.7-2.4-.6-.6-1.3-1.5-1.7-2.3l.3-.3c.8.8 1.8 1.8 2.7 2.6v.2l-.8.7c-.3.3-1.2 1.1-1.8 1.7L13 10z"/><path d="M2.6 13.1H3c.9 0 1.1-.2 1.1-1.4V4.2c0-1.1-.2-1.4-1.1-1.4h-.4v-.6h4.5v.7h-.3c-.9 0-1.1.2-1.1 1.4v3.2h4.6V4.2c0-1.1-.2-1.4-1.1-1.4h-.3v-.6h4.5v.7H13c-.9 0-1.1.2-1.1 1.4v7.5c0 1.1.2 1.4 1.1 1.4h.4v.7H8.9v-.7h.3c.9 0 1.1-.2 1.1-1.4V8.2H5.7v3.5c0 1.1.2 1.4 1.1 1.4h.3v.7H2.6v-.7z"/>
  </symbol>
  <symbol id="icon-menu" viewBox="0 0 24 28">
    <path d="M24 21v2c0 .547-.453 1-1 1H1c-.547 0-1-.453-1-1v-2c0-.547.453-1 1-1h22c.547 0 1 .453 1 1zm0-8v2c0 .547-.453 1-1 1H1c-.547 0-1-.453-1-1v-2c0-.547.453-1 1-1h22c.547 0 1 .453 1 1zm0-8v2c0 .547-.453 1-1 1H1c-.547 0-1-.453-1-1V5c0-.547.453-1 1-1h22c.547 0 1 .453 1 1z"/>
  </symbol>
</svg>