<svg xmlns="http://www.w3.org/2000/svg" hidden>
  <symbol id="icon-menu" viewBox="0 0 24 28">
    <title>menu icon</title>
    <path d="M24 21v2c0 .547-.453 1-1 1H1c-.547 0-1-.453-1-1v-2c0-.547.453-1 1-1h22c.547 0 1 .453 1 1zm0-8v2c0 .547-.453 1-1 1H1c-.547 0-1-.453-1-1v-2c0-.547.453-1 1-1h22c.547 0 1 .453 1 1zm0-8v2c0 .547-.453 1-1 1H1c-.547 0-1-.453-1-1V5c0-.547.453-1 1-1h22c.547 0 1 .453 1 1z"/>
  </symbol>
  <symbol id="icon-search" viewBox="0 0 24 28">
    <title>search icon</title>
    <path d="M24 21v2c0 .547-.453 1-1 1H1c-.547 0-1-.453-1-1v-2c0-.547.453-1 1-1h22c.547 0 1 .453 1 1zm0-8v2c0 .547-.453 1-1 1H1c-.547 0-1-.453-1-1v-2c0-.547.453-1 1-1h22c.547 0 1 .453 1 1zm0-8v2c0 .547-.453 1-1 1H1c-.547 0-1-.453-1-1V5c0-.547.453-1 1-1h22c.547 0 1 .453 1 1z"/>
  </symbol>
</svg>